<svg version="1.1" id="Layer_1" xmlns="http://www.w3.org/2000/svg"
  xmlns:xlink="http://www.w3.org/1999/xlink" x="0px" y="0px"
  width="100%" viewBox="0 0 512 512" enable-background="new 0 0 512 512" xml:space="preserve">
<path fill="#FFDA44" opacity="1.000000" stroke="none"
	d="
M1.000000,257.000000
	C1.000000,246.312439 1.000000,235.624878 1.334241,224.806396
	C2.101633,224.007355 2.797910,223.386078 2.926525,222.663742
	C4.007358,216.593353 4.854489,210.479630 6.014530,204.425415
	C11.264874,177.024078 21.296276,151.355911 35.362797,127.379745
	C50.073177,102.306137 68.795319,80.488091 90.893311,61.501659
	C105.024384,49.360336 120.255257,38.828346 136.653641,30.212654
	C163.769363,15.966084 192.472397,6.268386 223.113632,2.919175
	C223.804092,2.843703 224.373917,1.664408 225.000000,1.000003
	C246.020889,1.000000 267.041779,1.000000 288.193512,1.334925
	C288.993103,2.102554 289.614227,2.795442 290.337921,2.927908
	C297.992706,4.328994 305.681091,5.549338 313.327301,6.993892
	C339.500641,11.938684 363.789642,22.051571 386.624542,35.375050
	C411.271667,49.755917 432.741150,68.133766 451.444916,89.821030
	C467.581238,108.531296 480.764557,128.992279 490.904266,151.486893
	C501.215363,174.361710 508.192627,198.150452 511.080322,223.113388
	C511.160583,223.807007 512.335510,224.373978 513.000000,225.000000
	C513.000000,235.354233 513.000000,245.708450 512.531372,256.531342
	C341.708466,257.000000 171.354233,257.000000 1.000000,257.000000
z"/>
<path fill="#0052B4" opacity="1.000000" stroke="none"
	d="
M1.000000,257.468658
	C171.354233,257.000000 341.708466,257.000000 512.531372,257.000000
	C513.000000,267.354218 513.000000,277.708466 512.587280,288.433411
	C511.846893,289.149536 511.294464,289.454742 511.224548,289.846222
	C509.788727,297.881866 508.668427,305.982880 506.967987,313.960602
	C501.583069,339.224731 492.493469,363.069366 478.535461,385.095764
	C331.376587,385.017181 184.681702,385.008423 37.986797,385.007141
	C36.991348,385.007141 35.995895,385.110657 34.701195,384.974731
	C29.311897,374.329651 23.712868,364.088074 19.242008,353.375671
	C10.961301,333.534607 5.309696,312.908234 2.916808,291.459320
	C2.818623,290.579224 1.662976,289.817078 0.999999,289.000000
	C1.000000,278.645782 1.000000,268.291534 1.000000,257.468658
z"/>
<path fill="#D80027" opacity="1.000000" stroke="none"
	d="
M35.000443,385.165863
	C35.995895,385.110657 36.991348,385.007141 37.986797,385.007141
	C184.681702,385.008423 331.376587,385.017181 478.514893,385.445496
	C478.290466,386.978607 477.618195,388.089172 476.955475,389.205444
	C460.691895,416.600067 439.620087,439.859070 414.722900,459.488556
	C395.778229,474.424927 374.982330,486.479095 352.384552,495.294922
	C332.654022,502.992157 312.413940,508.529694 291.367523,511.081451
	C290.513367,511.185028 289.786285,512.336670 289.000000,513.000000
	C267.979095,513.000000 246.958206,513.000000 225.615784,512.592773
	C224.619873,511.800171 223.988464,511.213348 223.264832,511.059052
	C208.887939,507.993439 194.265106,505.796631 180.173843,501.747406
	C162.066010,496.543976 144.837952,488.849426 128.549149,479.208221
	C112.685356,469.818573 97.490814,459.444885 84.270523,446.585632
	C74.302139,436.889496 64.556244,426.828308 55.846325,416.015350
	C48.088303,406.384155 41.888134,395.498108 35.000443,385.165863
z"/>
</svg>